<?xml version="1.0" encoding="utf-8"?>
<!-- Generator: Adobe Illustrator 25.1.0, SVG Export Plug-In . SVG Version: 6.00 Build 0)  -->
<svg version="1.1" id="Ebene_1" xmlns="http://www.w3.org/2000/svg" xmlns:xlink="http://www.w3.org/1999/xlink" x="0px" y="0px"
	 viewBox="0 0 566.93 566.93" style="enable-background:new 0 0 566.93 566.93;" xml:space="preserve">
<style type="text/css">
	.st0{fill:#1A1A18;}
</style>
<path class="st0" d="M255.49,366.62c1.17,0,1.94-0.77,1.94-1.94c0-1.17-0.77-1.97-1.94-1.97c-1.17,0-1.94,0.8-1.94,1.97
	C253.55,365.85,254.32,366.62,255.49,366.62 M249.53,366.41v-0.21c-0.4-0.59-0.68-1.08-0.68-1.66v-16.35h1.63
	c0.49,0,1.08,0.21,1.91,0.71l0.37,0.25h0.12v-4.28h-11.7v4.28h0.12l0.37-0.25c0.83-0.49,1.42-0.71,1.91-0.71h1.63v16.35
	c0,0.59-0.28,1.08-0.68,1.66v0.21H249.53z M231.01,361.39h-0.25l0.09,4.16c0.34,0.4,1.42,1.08,3.48,1.08c3.39,0,5.67-2.34,5.67-5.82
	c0-2.83-1.42-5.48-4.22-8.44c-0.92-0.99-1.39-1.94-1.39-3.08c0-0.83,0.55-1.69,1.45-1.69c1.26,0,2.25,1.05,2.71,1.76h0.25
	l-0.12-4.25c-0.21-0.15-1.23-0.46-2.83-0.46c-3.17,0-5.27,1.85-5.27,4.62c0,2.31,0.92,4.22,2.77,6.19c2.03,2.16,3.05,3.88,3.05,5.48
	c0,1.79-1.02,2.8-2.28,2.8C232.45,363.73,231.59,362.71,231.01,361.39 M228.11,348.68h0.12v-3.82h-9.42v0.22
	c0.31,0.55,0.52,1.11,0.52,1.66v17.79c0,0.55-0.22,1.11-0.52,1.66v0.21h9.91v-3.91h-0.12c-0.95,0.52-1.54,0.83-2.16,0.83h-3.48v-7.2
	h1.42c0.52,0,1.17,0.22,1.82,0.52h0.25v-3.94h-0.25c-0.65,0.31-1.26,0.52-1.82,0.52h-1.42v-5.3h2.96
	C226.41,347.94,227,348.12,228.11,348.68"/>
<path class="st0" d="M354.13,366.41v-0.22l-0.06-0.12c-0.34-0.49-0.46-0.92-0.46-1.45v-19.77h-0.8l-4.68,3.69l0.25,0.37h1.82v15.7
	c0,0.55-0.22,1.11-0.62,1.57v0.22H354.13z M342.78,363.12h-2.65c0-4.16,5.02-8.47,5.02-13.02c0-3.39-2-5.45-5.05-5.45
	c-2.77,0-4.68,1.85-4.68,4.9c0,1.02,0.58,2.52,1.51,2.52h2l0.12-0.15c-0.62-0.62-0.77-1.39-0.77-2.4c0-0.99,0.55-1.94,1.63-1.94
	c1.17,0,1.88,0.89,1.88,2.59c0,3.14-6.28,9.7-6.28,15.24v1.02h8.96l0.37-4h-0.25C344.01,362.84,343.33,363.12,342.78,363.12
	 M326.93,363.55c-1.08,0-2.25-3.02-2.25-8.13c0-4.9,1.11-7.73,2.09-7.73c1.2,0,2.43,2.89,2.43,7.88
	C329.2,360.59,328.07,363.55,326.93,363.55 M320.65,355.51c0,6.65,2.74,11.12,6.19,11.12s6.19-4.46,6.19-11.18
	c0-6.5-2.74-10.81-6.19-10.81S320.65,348.98,320.65,355.51 M315.78,363.12h-2.65c0-4.16,5.02-8.47,5.02-13.02
	c0-3.39-2-5.45-5.05-5.45c-2.77,0-4.68,1.85-4.68,4.9c0,1.02,0.59,2.52,1.51,2.52h2l0.12-0.15c-0.62-0.62-0.77-1.39-0.77-2.4
	c0-0.99,0.55-1.94,1.63-1.94c1.17,0,1.88,0.89,1.88,2.59c0,3.14-6.28,9.7-6.28,15.24v1.02h8.96l0.37-4h-0.25
	C317.01,362.84,316.33,363.12,315.78,363.12"/>
<path class="st0" d="M282.09,148.81c-47.87,0.47-89.57,26.2-112.58,64.41l4.34,3.62c21.94-37.01,62.12-62,108.29-62.45
	c0.44-0.01,0.88,0,1.32,0c0.44,0,0.88-0.01,1.32,0c46.17,0.45,86.35,25.43,108.3,62.45l4.34-3.62
	c-23.01-38.21-64.71-63.94-112.58-64.41c-0.46,0-0.92,0-1.37,0C283.01,148.81,282.55,148.81,282.09,148.81 M297.87,121.98
	c1.15-3.05,2.3-6.1,3.45-9.16c4.34,0.51,8.68,1.01,13.01,1.51c0.28,3.07,0.57,6.13,0.85,9.19c1.25,13.54,17.89,21.08,27.1,8.96
	c1.96-2.6,3.92-5.21,5.89-7.81c4.02,1.71,8.04,3.41,12.06,5.12c-0.59,3.02-1.18,6.04-1.77,9.06c-2.61,13.34,11.22,25.27,23.48,16.23
	c2.62-1.94,5.23-3.89,7.85-5.84c3.38,2.77,6.75,5.54,10.13,8.31c-1.42,2.73-2.84,5.46-4.26,8.19c-6.27,12.07,3.65,27.41,17.96,22.19
	c3.06-1.13,6.12-2.26,9.18-3.39l3.26,4.78h0L401.4,209.9c-23.98-39.3-67.08-65.72-116.51-66.21c-0.48,0-0.95,0-1.42,0
	c-0.47,0-0.95,0-1.42,0c-49.43,0.48-92.53,26.9-116.51,66.21l-24.65-20.58l3.26-4.78c3.06,1.13,6.12,2.26,9.18,3.39
	c14.3,5.22,24.22-10.12,17.95-22.19c-1.42-2.73-2.84-5.46-4.26-8.19c3.38-2.77,6.75-5.54,10.13-8.31c2.61,1.95,5.23,3.9,7.85,5.84
	c12.25,9.04,26.09-2.89,23.48-16.23c-0.59-3.02-1.18-6.04-1.77-9.06c4.02-1.71,8.04-3.41,12.06-5.12c1.96,2.61,3.92,5.21,5.89,7.81
	c9.21,12.12,25.85,4.58,27.1-8.96c0.28-3.06,0.57-6.13,0.85-9.19c4.34-0.5,8.68-1.01,13.01-1.51c1.15,3.05,2.3,6.1,3.45,9.16
	c2.71,7.11,8.58,10.03,14.4,9.59C289.29,132.01,295.16,129.09,297.87,121.98"/>
<path class="st0" d="M376.11,267.13v-0.38c-0.7-1.02-1.18-1.87-1.18-2.89v-28.43h2.84c0.86,0,1.87,0.38,3.32,1.23l0.64,0.43h0.21
	v-7.44H361.6v7.44h0.21l0.64-0.43c1.45-0.86,2.46-1.23,3.32-1.23h2.84v28.43c0,1.02-0.48,1.87-1.18,2.89v0.38H376.11z
	 M344.17,258.41h-0.43l0.16,7.23c0.59,0.7,2.46,1.87,6.05,1.87c5.89,0,9.85-4.07,9.85-10.12c0-4.93-2.46-9.53-7.33-14.67
	c-1.61-1.71-2.41-3.37-2.41-5.35c0-1.45,0.96-2.95,2.52-2.95c2.19,0,3.91,1.82,4.71,3.05h0.43l-0.21-7.39
	c-0.38-0.27-2.14-0.8-4.93-0.8c-5.51,0-9.16,3.21-9.16,8.03c0,4.02,1.61,7.33,4.82,10.76c3.53,3.75,5.3,6.75,5.3,9.53
	c0,3.1-1.77,4.87-3.96,4.87C346.68,262.48,345.18,260.71,344.17,258.41 M331.75,229.66v0.38c0.54,1.02,0.96,1.87,0.96,2.89v30.94
	c0,1.02-0.43,1.93-0.96,2.89v0.38h8.19v-0.38c-0.54-1.02-0.96-1.87-0.96-2.89v-30.94c0-1.02,0.43-1.93,0.96-2.89v-0.38H331.75z
	 M311.63,229.66v0.38c0.54,0.96,0.91,1.93,0.91,2.89v30.94c0,0.96-0.38,1.93-0.91,2.89v0.38h16.86v-7.71h-0.21
	c-2.09,1.5-2.73,1.93-3.75,1.93h-5.67v-28.43c0-1.02,0.38-1.87,0.96-2.89v-0.38H311.63z M308.12,258.78h-0.21
	c-0.43,0.32-3.37,2.52-6.59,2.52c-3.96,0-6.69-4.82-6.69-12.04c0-8.78,2.73-14.29,6.8-14.29c2.78,0,5.52,3.05,6.05,3.69l0.21-0.05
	l-0.32-8.14c-0.43-0.43-2.89-1.18-5.94-1.18c-8.24,0-13.65,7.98-13.65,19.97c0,10.92,5.41,18.25,13.54,18.25
	c2.57,0,5.19-0.59,6.37-1.39L308.12,258.78z M280.43,267.13v-0.38c-0.69-1.12-1.02-1.82-1.02-2.68v-15.1l7.07-16.59
	c0.27-0.75,0.7-1.5,1.39-2.46v-0.27h-8.08v0.38c0.32,1.07,0.43,1.71,0.21,2.52l-3.8,9.64l-3.59-9.26c-0.38-1.02-0.27-1.87,0-2.89
	v-0.38h-8.08v0.38c0.69,0.8,1.23,1.77,1.61,2.73l6.96,16.22v14.88c0,1.02-0.48,1.87-1.02,2.89v0.38H280.43z M262.02,258.78h-0.21
	c-0.43,0.32-3.37,2.52-6.59,2.52c-3.96,0-6.69-4.82-6.69-12.04c0-8.78,2.73-14.29,6.8-14.29c2.78,0,5.52,3.05,6.05,3.69l0.21-0.05
	l-0.32-8.14c-0.43-0.43-2.89-1.18-5.94-1.18c-8.24,0-13.65,7.98-13.65,19.97c0,10.92,5.41,18.25,13.54,18.25
	c2.57,0,5.19-0.59,6.37-1.39L262.02,258.78z"/>
<path class="st0" d="M238.5,236.3h0.21v-6.64h-16.38v0.38c0.54,0.96,0.91,1.93,0.91,2.89v30.94c0,0.96-0.38,1.93-0.91,2.89v0.38
	h17.24v-6.8h-0.22c-1.66,0.91-2.68,1.45-3.75,1.45h-6.05v-12.53h2.46c0.91,0,2.03,0.38,3.16,0.91h0.43v-6.85h-0.43
	c-1.12,0.54-2.19,0.91-3.16,0.91h-2.46v-9.21h5.14C235.56,235.01,236.58,235.33,238.5,236.3 M229.76,273.56h-0.43
	c0,0-1.02,2.3-3.85,2.3c-7.12,0-11.73-14.35-14.4-26.55c4.98-3.43,7.55-9.42,7.55-15.26c0-10.6-7.39-18.31-19.01-18.31
	c-11.08,0-17.72,8.51-17.72,15.68c0,6.16,5.14,8.41,9.26,5.67v-0.43c-1.66-1.18-2.3-2.52-2.3-5.09c0-5.57,5.35-8.89,10.76-8.89
	c7.92,0,12.05,5.35,12.05,11.35c0,5.89-3.32,11.14-9.37,11.56v-15.26c0-1.02,0.59-2.14,1.18-2.89v-0.38h-9.16v0.38
	c0.64,0.86,1.12,1.93,1.12,2.95v40.95c0,1.02-0.54,1.98-1.12,2.78v0.37h9.16v-0.37c-0.64-0.8-1.18-1.77-1.18-2.78v-19.27
	c0.8-0.05,1.55-0.11,2.25-0.21c2.89,13.92,8.03,30.78,20.02,30.78c3.96,0,6.64-2.73,6.64-5.3
	C231.21,275.81,230.62,274.15,229.76,273.56"/>
<path class="st0" d="M304.83,197.44H303v-10.55h1.07c3.21,0,5.09,1.61,5.09,5.25C309.16,195.56,306.91,197.44,304.83,197.44
	 M316.66,218.48v-0.37c-0.7-0.86-1.23-1.77-1.61-2.73l-4.93-13.17c2.84-1.45,5.67-5.41,5.67-10.71c0-6.26-3.86-10.49-9.64-10.49
	h-10.39v0.38c0.54,0.96,0.91,1.93,0.91,2.89v30.94c0,0.96-0.38,1.93-0.91,2.89v0.37h8.08v-0.37c-0.64-1.23-0.86-2.03-0.86-2.89
	v-12.37h1.82l4.76,15.63H316.66z M291.12,187.64h0.21V181h-16.38v0.38c0.54,0.96,0.91,1.93,0.91,2.89v30.94
	c0,0.96-0.38,1.93-0.91,2.89v0.37h17.24v-6.8h-0.21c-1.66,0.91-2.68,1.45-3.75,1.45h-6.05V200.6h2.46c0.91,0,2.03,0.37,3.16,0.91
	h0.43v-6.85h-0.43c-1.12,0.54-2.19,0.91-3.16,0.91h-2.46v-9.21h5.14C288.18,186.36,289.19,186.68,291.12,187.64 M258.35,213.5h-1.39
	v-27.03h3.1c2.78,0,4.66,4.44,4.66,13.06C264.72,208.57,262.15,213.34,258.35,213.5 M249.73,181v0.38c0.54,0.96,0.96,1.93,0.96,2.89
	v30.94c0,0.91-0.37,1.93-0.96,2.84v0.43h8.78c7.92-0.27,13.22-6.74,13.22-18.95S267.13,181,260.23,181H249.73z"/>
<g>
	<path class="st0" d="M283.44,371.39c-6.37,0-6.57,7.43-2.11,8.98C289.25,383.08,291.7,371.39,283.44,371.39z M284.8,378.91
		c-3.45,1.41-6.3-2.53-3.66-5.09C284.88,370.18,289.55,376.99,284.8,378.91z"/>
	<path class="st0" d="M444.71,322.91c-0.5-4.11-1.07-21.24-0.29-23.35c0.05-0.13,8.15-10.81,8.15-18.44c0-3.42,3.62-0.3,2.55-11.12
		l-3.84-29.34c-0.35-3.54-0.21-33.35-1.2-35.79c-2.74-6.71-17.71-9.9-23.86-1.26c-3.24,4.57-3.69,21.15-4.91,45.63
		c-0.22,4.33-0.46,8.29-0.55,8.82l-0.66,19.32c-0.34,3.29-0.82,5.09-3.1,7.03c-6.11,5.18-22.48,5.63-47.73,6.33
		c-5.24,0.14-24.55,1.63-27.11,4.54c-0.86,0.98-1.42,0.72-4.08,1.34c-13.2,3.07-26.88,3.88-40.82,3.94
		c-0.74-2.43-2.46-3.83-6.12-3.07c-5.69,1.19-3.91,7.54-7.08,8.42c-4.46,1.24-2.12-7.12-8.33-8.42c-3.59-0.75-5.39,0.6-6.11,3.07
		c-13.94-0.06-27.62-0.87-40.82-3.94c-2.67-0.62-3.22-0.36-4.08-1.34c-2.56-2.9-21.87-4.39-27.11-4.54
		c-21.27-0.59-32.25-1.33-38.61-2.58c-13.64-2.7-12.5-8.52-12.65-21.64l-0.77-17.28c-1.05-21.23-1.92-38.41-3.79-43.57
		c-3.69-10.19-21.7-8.88-24.98-0.81c-0.57,1.4-0.58,1.54-0.75,17.12c-0.21,18.98-0.3,20.19-2.76,36.71
		c-1.02,6.84-3.36,18.13,0.27,20.63c1.9,1.31-0.9,6.23,7.22,17.83c2.06,2.95,1.6,1.71,1.92,4.98c2.6,26.76-11.86,65.87-10.44,74.9
		c0.65,4.14,3.35,6.16,9.37,8.11c10.42,3.37,14.38-4.26,17.09-14.73c3.77-14.57,8.58-36.18,9.18-49.42
		c0.29-6.34-3.05-1.98,20.58,0.71c9.77,1.11,51.94-0.2,55.07-1.69c1.9-0.91,0.37-1.62,4.34-0.05c7.57,2.98,30.55,7.04,40.35,4.33
		l0.49,2.74c1.24,2.8,1.34,4.11,1.3,17.09c-0.04,11.73,0.19,18.34,0.78,22.47c0.36,2.56,0.35,2.7-0.26,4.3
		c-3.51,9.29,3.14,15.53,3.24,15.84l-0.02,24.6c-25.57-2.16-47.89-10.13-68.64-26.94c-30.05-24.36-22.66-38.98-32.26-20.82
		c-4.64,8.77-4.02,11.34-11.45,11.84c-18.72,1.26-21.89-2.22-10.43,13.95c29.56,41.68,82.36,63.63,132.45,64.74
		c50.09-1.11,102.89-23.05,132.45-64.74c11.47-16.17,8.3-12.69-10.43-13.95c-7.42-0.5-6.81-3.07-11.45-11.84
		c-9.6-18.15-2.21-3.53-32.26,20.82c-20.76,16.82-43.1,24.79-68.68,26.95l-0.01-24.61c0.21-0.62,5.13-4.55,4.04-12.33
		c-0.69-4.97-1.72-3.17-1.06-7.8c0.59-4.13,0.81-10.74,0.78-22.47c-0.05-12.98,0.06-14.29,1.3-17.09l0.49-2.72
		c9.22,2.62,32.56-1.29,40.34-4.36c3.92-1.55,2.45-0.89,4.35,0.05c3.03,1.49,45.35,2.8,55.07,1.69c23.65-2.69,20.28-7.05,20.59-0.71
		c0.64,13.47,5.34,34.61,9.17,49.42c1.7,6.58,3.55,10.6,5.99,12.99c6.07,5.98,17.92-0.29,19.7-3.68c2.06-3.92,0.18-12.38-3.16-25.64
		C447.93,343.14,445.87,332.38,444.71,322.91z M148.35,290.72c-5.4,1.51-7.43,4.34-10.03,4.82c-3.7,0.68-8.38-0.06-11.65-1.46
		c3.27-5.44,10.03-8.09,17.38-8.77C150.03,291.22,151.55,289.83,148.35,290.72z M137.48,334.27c1.02,7.15,1.17,1.09-10.14-9.4
		l0.72-16.06C132.83,316.61,136.13,324.97,137.48,334.27z M121.01,208.16c0.78-6.04,10.29-5.43,12.55-4.41
		c5.03,2.27,6.37,7.58,0.42,9.76C128.14,215.59,120.47,212.37,121.01,208.16z M122.44,237.34c1.4-4.31,5.91-4.52,8.91-0.42
		c4.31,5.89,6.56,11.98,7.62,18.96c0.62,4.1,2.16,16.64,2.16,17.55c0,0.71-0.06,0.78-0.57,0.65c-4.14-1.08-12.8-1.42-16.9-0.56
		l-6.33,1.72L122.44,237.34z M118.39,280.11c3.64-1.51,4.17-1.64,11.62-1.64c13.08,0,11.19,1.02,12.15,3.19
		c1.6,3.6-1.6-2.09-12.01,3.82C125.62,288.04,122.54,284.13,118.39,280.11z M130.72,377.47c-0.67,1.08-0.8,0.92-2.52,0.06
		c-2.65-1.33-7.29-2.3-11.15-3.06l2.48-12.28c5.3,0.3,10.79,2.18,14.75,5.65L130.72,377.47z M135.81,361.33
		c-0.46,2.03-0.91,3.67-0.99,3.64c-0.41-0.15-5.31-6.11-12.55-6.75c-2.52-0.23-1.91,0.45,0.94-10.59
		c6.36,2.31,8.93,3.65,13.45,10.02L135.81,361.33z M138.07,348.57c-0.05,2.54-0.21,4.51-0.36,4.65c-0.35,0.34-4.81-6.58-12.25-8.12
		c-1.9-0.4-1.65,0.18-1.01-2.69l2.43-13.28c4.46,4.74,8.47,9.21,10.52,13.48C138.54,344.97,138.15,344.58,138.07,348.57z
		 M147.05,305.24c-3.78,0.65-6.37-0.01-10.18-0.45c3-5.83,8.63-10.58,16.07-12.7c1.58-0.45,8.56,1.08,10.5,1.36
		C152.33,300.52,155.46,303.78,147.05,305.24z M156.85,312.43L156.85,312.43c-5.36,0.97-4.46,0.58-3.77-1.59
		c1.84-5.82,6.17-11.13,11.75-14.74c3.65-2.37,3.37-2.28,6.98-2.03c8.06,0.55,3.05-1.05-1.66,8.09
		C167.75,306.79,161.53,311.58,156.85,312.43z M172.16,314.45c-0.84,0.23-1.74,0.5-2,0.61c-1.79,0.74,2.64-11.48,4.05-14.13
		l5.18-6.43l14.9,0.36c-2.84,2.24-4.45,3.82-6.99,8.01C184.1,308.12,177.99,312.85,172.16,314.45z M189.43,314.67l-3.37,1.05
		c2.96-9.67,4.47-13.62,12.07-20.97c9.77,0.42,8.9-0.13,7.21,1.87C201.41,301.3,201.19,310.41,189.43,314.67z M212.42,297.41
		c-1.78,7.39-0.35,12.34-8.25,16.71c-2.53,1.39-2.86,1.5-2.68,0.9c2.4-7.66,3.34-13.86,7.36-19.79
		C213.55,295.65,212.97,295.13,212.42,297.41z M221.15,302c0,6.09-0.27,10.36-5.33,12.86l-2.85,1.63l3.08-20.41
		c0.12-0.18,0.81-0.17,2.41,0.09C221.57,296.67,221.15,295.64,221.15,302z M269.3,304.99c-0.13,5.74-1.02,8.4-11.64,9.44
		c-7.41,0.72-20.43-0.39-27.47-2.33c-6.42-1.78-5.23,0.99-5.23-10.72l10.13,1.82c5.11,0.73,25.54,1,30.63,0.01
		C269.82,302.4,269.36,301.91,269.3,304.99z M259.39,421.61c-0.61,0.6-0.69,0.84-0.81,1.36l-3.41,15.65c-0.1,0.46-0.08,1,0.12,1.56
		l-0.04,0.19l-3.9-0.85l0.04-0.19c0.38-0.46,0.64-0.85,0.75-1.37l2.42-11.1l-4.93,6.1l-0.3-0.07l-1.98-7.6l-2.45,11.23
		c-0.11,0.51,0.02,0.97,0.23,1.44l-0.04,0.19l-4.09-0.89l0.04-0.19c0.46-0.41,0.78-0.82,0.89-1.34l3.45-15.84
		c0.08-0.38,0-0.77-0.24-1.38l0.04-0.19l3.9,0.85l1.78,7.48l4.48-6.11l4.08,0.89L259.39,421.61z M272.62,423.14
		c-0.28,0.27-0.64,0.71-0.69,1.12l-1.4,12.22c-0.41,3.63-2.71,5.63-5.87,5.27c-3.19-0.37-4.86-2.81-4.45-6.45l1.36-11.92
		c0.05-0.39-0.15-1.16-0.38-1.55l0.02-0.19l4.32,0.49l-0.02,0.19c-0.4,0.54-0.62,1.02-0.66,1.43l-1.36,11.92
		c-0.21,1.84,0.42,2.95,1.52,3.07c1.27,0.14,2.13-0.82,2.34-2.63l1.36-11.92c0.06-0.52-0.05-0.98-0.35-1.55l0.02-0.19l4.26,0.49
		L272.62,423.14z M290.44,311.86h2.25l0.07,3.26c0.08,4,0.44,3.37-2.37,2.69L290.44,311.86z M283.44,307.79
		c4.45,0,4.72-4.5,4.01,1.42l-1.91,0.16l-6.1-0.11C278.72,303.27,279,307.79,283.44,307.79z M276.45,311.86l0.05,5.97l-0.77,0.12
		c-2.03,0.34-1.7,1.75-1.53-6.1H276.45z M275.34,299.76v4.64v4.63h-3.6C271.93,301.2,271.05,298.71,275.34,299.76z M285.92,423.45
		c-0.28,0.5-0.45,0.99-0.46,1.49l-0.22,17.7l-1.14-0.02l-6-11.88l-0.13,10.11c-0.01,0.5,0.15,0.97,0.48,1.47l0,0.22l-4.26-0.05
		l0-0.22c0.28-0.47,0.51-0.96,0.52-1.46l0.2-16.01c0.01-0.58-0.18-1-0.45-1.5l0-0.19l3.57,0.05l4.02,8.47l0.08-6.73
		c0.01-0.53-0.13-1-0.48-1.5l0-0.19l4.26,0.05L285.92,423.45z M279.69,393.9c4.2,0.37,2.27-2.61,3.75-2.61
		c1.49,0-0.46,2.99,3.75,2.61c3.22-0.29,2.37-2.71,1.91,6.35l-0.17,3.43h-11C277.29,390.55,276.43,393.61,279.69,393.9z
		 M311.6,420.48l0.04,0.19c-0.17,0.55-0.28,1.05-0.17,1.57l1.22,5.6l3.33-0.72l-1.22-5.61c-0.11-0.49-0.43-0.93-0.81-1.36
		l-0.04-0.19l4.14-0.9l0.04,0.19c-0.14,0.51-0.27,0.97-0.17,1.43l3.47,15.92c0.1,0.46,0.36,0.86,0.75,1.23l0.04,0.19l-4.14,0.9
		l-0.04-0.19c0.17-0.55,0.28-1.08,0.17-1.57l-1.56-7.15l-3.33,0.73l1.56,7.15c0.11,0.51,0.42,0.9,0.81,1.36l0.04,0.19l-4.3,0.94
		l-0.04-0.19c0.17-0.55,0.28-1.08,0.17-1.57l-3.41-15.64c-0.11-0.49-0.43-0.93-0.81-1.36l-0.04-0.19L311.6,420.48z M302.04,421.84
		c1.57-0.18,2.88,0.06,3.13,0.26l0.64,4.16l-0.11,0.04c-0.31-0.3-1.9-1.71-3.33-1.54c-2.09,0.24-3.17,3.24-2.65,7.75
		c0.42,3.72,2.11,6.04,4.15,5.8c1.65-0.19,3.04-1.49,3.24-1.68l0.11-0.01l0.21,3.79c-0.56,0.48-1.87,0.94-3.2,1.09
		c-4.18,0.48-7.39-2.97-8.03-8.59C295.49,426.74,297.8,422.32,302.04,421.84z M293.18,440.62c0.03,0.53,0.28,0.95,0.59,1.46
		l0.01,0.19l-4.23,0.27l-0.01-0.19c0.25-0.52,0.44-1,0.4-1.53l-1.01-15.98c-0.03-0.53-0.28-0.95-0.59-1.46l-0.01-0.19l4.23-0.27
		l0.01,0.2c-0.25,0.51-0.44,1-0.4,1.52L293.18,440.62z M287.81,387.16c-7.38,3.5-17.93-2.94-15.11-14.53
		c1.72-7.11,10.37-10.36,16.87-6.35C296.14,370.34,297.18,382.68,287.81,387.16z M291.11,327.03c-4.46,0.26-2.2-0.01-1.11,3.85
		c1.09,3.82,0.35,25.29,0.19,31.11l-4.86-0.9l4.68,2.56c1.43,1.69-4.33-3.47-11.46-0.42c-3.23,1.38-1.42-0.36,2.98-2.14l-4.86,0.9
		c-0.17-5.84-0.9-27.26,0.19-31.11c1.1-3.87,3.35-3.59-1.11-3.85c-2.72-0.16-2.34-0.12-4.05,1.25c1.05-3.22,3.34-2.55,9.48-2.55
		l-0.84-2.21c-0.75-1.69-0.26-7.99-0.14-11.54h6.45l0.17,5.22c0.24,7.1,0.06,4.69-1.16,8.53c6.06,0,8.47-0.67,9.47,2.55
		C293.46,326.9,293.83,326.86,291.11,327.03z M291.54,309.03v-9.27c3.81-0.93,3.39,0.96,3.5,5l0.11,4.27H291.54z M340.23,311.23
		c-7.4,1.37-7.15,2.33-19.44,3.2c-8.58,0.62-16.06-0.08-19.57-1.81c-5.09-2.5-3.63-10.08-3.33-10.04c7.56,1.08,2.21,1.18,18.09,1.18
		c12.77,0,17.9-0.38,25.95-2.39l-0.01,4.51C341.92,311.11,342.12,310.88,340.23,311.23z M437.39,203.14
		c11.06,0.15,10.47,8.46,3.47,10.52c-3.51,1.02-8.25,0.69-10.8-1.99C427.33,208.8,430.02,203.04,437.39,203.14z M427.91,255.88
		c0.43-2.86,2.15-9.04,3.25-11.65c1.38-3.29,5.99-12.15,10.89-9.84c2.03,0.96,2.39,1.89,3.45,8.98c0.84,5.66,0.93,6.34,2.79,21.45
		c1.51,12.32,2.03,11.06-0.89,9.93c-3.5-1.35-5.7-1.67-11.27-1.67c-9.89,0.03-10.39,2.04-10.39,0.35
		C425.73,272.52,427.29,259.98,427.91,255.88z M424.72,281.66c0.81-1.82-0.7-3.58,13.55-3.24c6.17,0.15,7.31,0.36,10.2,1.71
		c-1.99,1.93-4.49,4.56-6.53,5.54c-5.44,2.64-7.29-3.94-16.28-2.92C423.83,282.96,424.04,283.18,424.72,281.66z M422.83,285.31
		c7.34,0.68,14.11,3.33,17.38,8.77l-4.46,1.33c-4.5,0.76-7.29,0.72-10.48-1.46C415.17,287.07,414.14,293.91,422.83,285.31z
		 M439.53,324.87l-6.42,6.57l-4.08,5.73c0-2.67,2.2-12.11,3.84-16.48l5.95-11.89L439.53,324.87z M353.8,316.4
		c-0.04,0-5.34-2.62-6.78-5.35c-2.17-4.11-1.07-14.4-1.07-14.4l4.89-0.56c0.41,0.65,2.55,14.14,2.89,18.28
		C353.83,315.49,353.85,316.4,353.8,316.4z M359.27,311.61c-2.34-2.2-3.02-3.75-3.8-8.67c-1.42-9.02-2.87-7.23,2.55-7.71
		c4.28,6.31,4.85,12.3,7.35,19.76C365.88,316.71,359.81,312.11,359.27,311.61z M377.45,314.67c-11.74-4.24-11.96-13.32-15.92-18.05
		c-1.68-2-2.53-1.45,7.21-1.87c5.94,5.7,9.22,10.71,11.56,19.05C381.21,317.03,381.53,316.15,377.45,314.67z M395.98,314.79
		l-5.5-2.12c-10.45-5.09-10.13-11.69-17.88-17.81l14.89-0.36l0.73,0.58c4.52,3.6,7.96,13.31,8.79,18.92
		C397.19,315.26,397.14,315.3,395.98,314.79z M396.74,302.16c-3.12-6.04-7.1-7.84-5.52-7.86c6.5-0.08,5.59-1.61,10.84,1.8
		c2.77,1.8,6.62,5.38,8.1,7.54c1.4,2.05,4.19,7.58,4.19,9.1C414.35,313.67,401.89,312.13,396.74,302.16z M427.29,305.1
		c-2.98,0.85-8.11,0.39-11.4-1.1c-4.26-1.94-2.85-4.44-12.44-10.55c1.94-0.28,8.92-1.81,10.49-1.36
		c7.56,2.16,13.04,6.87,16.12,12.77L427.29,305.1z M428.72,344.25c0.68-3.23,7.39-11,11.27-15.13l0.96,5.49l1.93,10.15
		c0,0-7.58,1.5-11.65,6.36c-0.59,0.7-1.25,1.54-1.47,1.86C428.39,355,428.72,344.26,428.72,344.25z M430.21,357.64
		c4.43-6.24,7.18-7.73,13.45-10.03c2.86,11.03,3.46,10.37,0.95,10.6c-3.53,0.32-7.91,2.4-10.88,5.14
		C431.3,365.61,432.31,366.75,430.21,357.64z M438.63,377.54c-0.82,0.4-1.6,0.73-1.73,0.73c-1.11,0-3.31-7.26-4.3-10.43
		c3.96-3.48,9.44-5.35,14.75-5.65l2.48,12.28C445.92,375.23,441.39,376.19,438.63,377.54z"/>
	<path class="st0" d="M284.14,373.99c-2.13-0.71-3.86,2.19-2.21,3.8c0.33,0.32,0.84,0.48,1.51,0.48
		C286.54,378.27,285.88,374.57,284.14,373.99z"/>
</g>
</svg>
